<svg id="Calque_1" data-name="Calque 1" xmlns="http://www.w3.org/2000/svg" width="196.09447mm" height="196.09429mm" viewBox="0 0 555.85835 555.85783">
  <defs>
    <style>
      .cls-1 {
        fill: #ef7d44;
      }

      .cls-2, .cls-4 {
        fill: #383737;
      }

      .cls-3 {
        fill: #fff;
      }

      .cls-4 {
        font-size: 75px;
        font-family: Poppins-Medium, Poppins;
        font-weight: 500;
      }
    </style>
  </defs>
  <title>projetSOA</title>
  <g>
    <circle class="cls-1" cx="305.94147" cy="410.17982" r="277.92895" transform="translate(-228.44511 204.22133) rotate(-45)"/>
    <g>
      <g>
        <rect class="cls-2" x="270.56788" y="298.75157" width="14.72233" height="106.5105"/>
        <g>
          <circle class="cls-2" cx="277.92904" cy="411.08177" r="29.47492"/>
          <path class="cls-3" d="M323.54411,543.33261a17.60271,17.60271,0,1,1-17.60271-17.603A17.60254,17.60254,0,0,1,323.54411,543.33261Z" transform="translate(-28.01236 -132.25084)"/>
        </g>
      </g>
      <g>
        <rect class="cls-2" x="199.84949" y="344.64592" width="156.15883" height="14.72233"/>
        <g>
          <rect class="cls-2" x="348.64743" y="344.64619" width="14.72206" height="60.61588"/>
          <g>
            <circle class="cls-2" cx="356.00859" cy="411.08177" r="29.47492"/>
            <path class="cls-3" d="M401.62366,543.33261a17.60284,17.60284,0,1,1-17.60271-17.603A17.60271,17.60271,0,0,1,401.62366,543.33261Z" transform="translate(-28.01236 -132.25084)"/>
          </g>
        </g>
        <g>
          <rect class="cls-2" x="192.4886" y="344.64619" width="14.72206" height="60.61588"/>
          <g>
            <circle class="cls-2" cx="199.84949" cy="411.08177" r="29.47492"/>
            <path class="cls-3" d="M245.46483,543.33261a17.60285,17.60285,0,1,1-17.603-17.603A17.60277,17.60277,0,0,1,245.46483,543.33261Z" transform="translate(-28.01236 -132.25084)"/>
          </g>
        </g>
      </g>
      <g>
        <path class="cls-3" d="M153.82829,400.95634a49.815,49.815,0,0,0,49.81525,49.815H392.525a49.81493,49.81493,0,0,0,49.815-49.815h0a49.815,49.815,0,0,0-49.815-49.81524H203.64354a49.81506,49.81506,0,0,0-49.81525,49.81524Z" transform="translate(-28.01236 -132.25084)"/>
        <circle class="cls-3" cx="397.16961" cy="389.8864" r="60.88494" transform="translate(-187.37539 262.78556) rotate(-45)"/>
        <circle class="cls-3" cx="298.08417" cy="335.84542" r="88.29345" transform="translate(-98.06986 -53.53969) rotate(-13.47593)"/>
      </g>
    </g>
  </g>
  <text class="cls-4" transform="translate(203.46301 311.94582)">SOA</text>
</svg>
